# MagicaVoxel @ Ephtracy

# material
mtllib tracks.mtl
usemtl palette

# normals
vn -1 0 0
vn 1 0 0
vn 0 0 1
vn 0 0 -1
vn 0 -1 0
vn 0 1 0

# texcoords
vt 0.869141 0.5
vt 0.876953 0.5

# verts
v -6 0 15
v -6 0 13
v -6 0 10
v -6 0 8
v -6 0 5
v -6 0 3
v -6 0 -0
v -6 0 -2
v -6 0 -5
v -6 0 -7
v -6 0 -10
v -6 0 -12
v -6 1 15
v -6 1 13
v -6 1 10
v -6 1 8
v -6 1 5
v -6 1 3
v -6 1 -0
v -6 1 -2
v -6 1 -5
v -6 1 -7
v -6 1 -10
v -6 1 -12
v -5 1 16
v -5 1 15
v -5 1 13
v -5 1 10
v -5 1 8
v -5 1 5
v -5 1 3
v -5 1 -0
v -5 1 -2
v -5 1 -5
v -5 1 -7
v -5 1 -10
v -5 1 -12
v -5 1 -15
v -5 2 16
v -5 2 -15
v 2 1 16
v 2 1 15
v 2 1 13
v 2 1 10
v 2 1 8
v 2 1 5
v 2 1 3
v 2 1 -0
v 2 1 -2
v 2 1 -5
v 2 1 -7
v 2 1 -10
v 2 1 -12
v 2 1 -15
v 2 2 16
v 2 2 -15
v -4 1 16
v -4 1 15
v -4 1 13
v -4 1 10
v -4 1 8
v -4 1 5
v -4 1 3
v -4 1 -0
v -4 1 -2
v -4 1 -5
v -4 1 -7
v -4 1 -10
v -4 1 -12
v -4 1 -15
v -4 2 16
v -4 2 -15
v 3 1 16
v 3 1 15
v 3 1 13
v 3 1 10
v 3 1 8
v 3 1 5
v 3 1 3
v 3 1 -0
v 3 1 -2
v 3 1 -5
v 3 1 -7
v 3 1 -10
v 3 1 -12
v 3 1 -15
v 3 2 16
v 3 2 -15
v 4 0 15
v 4 0 13
v 4 0 10
v 4 0 8
v 4 0 5
v 4 0 3
v 4 0 -0
v 4 0 -2
v 4 0 -5
v 4 0 -7
v 4 0 -10
v 4 0 -12
v 4 1 15
v 4 1 13
v 4 1 10
v 4 1 8
v 4 1 5
v 4 1 3
v 4 1 -0
v 4 1 -2
v 4 1 -5
v 4 1 -7
v 4 1 -10
v 4 1 -12
v -5 1 16
v -5 2 16
v -4 1 16
v -4 2 16
v 2 1 16
v 2 2 16
v 3 1 16
v 3 2 16
v -6 0 15
v -6 1 15
v -5 1 15
v -4 1 15
v 2 1 15
v 3 1 15
v 4 0 15
v 4 1 15
v -6 0 10
v -6 1 10
v -5 1 10
v -4 1 10
v 2 1 10
v 3 1 10
v 4 0 10
v 4 1 10
v -6 0 5
v -6 1 5
v -5 1 5
v -4 1 5
v 2 1 5
v 3 1 5
v 4 0 5
v 4 1 5
v -6 0 -0
v -6 1 -0
v -5 1 -0
v -4 1 -0
v 2 1 -0
v 3 1 -0
v 4 0 -0
v 4 1 -0
v -6 0 -5
v -6 1 -5
v -5 1 -5
v -4 1 -5
v 2 1 -5
v 3 1 -5
v 4 0 -5
v 4 1 -5
v -6 0 -10
v -6 1 -10
v -5 1 -10
v -4 1 -10
v 2 1 -10
v 3 1 -10
v 4 0 -10
v 4 1 -10
v -6 0 13
v -6 1 13
v -5 1 13
v -4 1 13
v 2 1 13
v 3 1 13
v 4 0 13
v 4 1 13
v -6 0 8
v -6 1 8
v -5 1 8
v -4 1 8
v 2 1 8
v 3 1 8
v 4 0 8
v 4 1 8
v -6 0 3
v -6 1 3
v -5 1 3
v -4 1 3
v 2 1 3
v 3 1 3
v 4 0 3
v 4 1 3
v -6 0 -2
v -6 1 -2
v -5 1 -2
v -4 1 -2
v 2 1 -2
v 3 1 -2
v 4 0 -2
v 4 1 -2
v -6 0 -7
v -6 1 -7
v -5 1 -7
v -4 1 -7
v 2 1 -7
v 3 1 -7
v 4 0 -7
v 4 1 -7
v -6 0 -12
v -6 1 -12
v -5 1 -12
v -4 1 -12
v 2 1 -12
v 3 1 -12
v 4 0 -12
v 4 1 -12
v -5 1 -15
v -5 2 -15
v -4 1 -15
v -4 2 -15
v 2 1 -15
v 2 2 -15
v 3 1 -15
v 3 2 -15
v -6 0 15
v 4 0 15
v -6 0 13
v 4 0 13
v -6 0 10
v 4 0 10
v -6 0 8
v 4 0 8
v -6 0 5
v 4 0 5
v -6 0 3
v 4 0 3
v -6 0 -0
v 4 0 -0
v -6 0 -2
v 4 0 -2
v -6 0 -5
v 4 0 -5
v -6 0 -7
v 4 0 -7
v -6 0 -10
v 4 0 -10
v -6 0 -12
v 4 0 -12
v -5 1 16
v -4 1 16
v 2 1 16
v 3 1 16
v -5 1 15
v -4 1 15
v 2 1 15
v 3 1 15
v -5 1 13
v -4 1 13
v 2 1 13
v 3 1 13
v -5 1 10
v -4 1 10
v 2 1 10
v 3 1 10
v -5 1 8
v -4 1 8
v 2 1 8
v 3 1 8
v -5 1 5
v -4 1 5
v 2 1 5
v 3 1 5
v -5 1 3
v -4 1 3
v 2 1 3
v 3 1 3
v -5 1 -0
v -4 1 -0
v 2 1 -0
v 3 1 -0
v -5 1 -2
v -4 1 -2
v 2 1 -2
v 3 1 -2
v -5 1 -5
v -4 1 -5
v 2 1 -5
v 3 1 -5
v -5 1 -7
v -4 1 -7
v 2 1 -7
v 3 1 -7
v -5 1 -10
v -4 1 -10
v 2 1 -10
v 3 1 -10
v -5 1 -12
v -4 1 -12
v 2 1 -12
v 3 1 -12
v -5 1 -15
v -4 1 -15
v 2 1 -15
v 3 1 -15
v -6 1 15
v -5 1 15
v -4 1 15
v 2 1 15
v 3 1 15
v 4 1 15
v -6 1 13
v -5 1 13
v -4 1 13
v 2 1 13
v 3 1 13
v 4 1 13
v -6 1 10
v -5 1 10
v -4 1 10
v 2 1 10
v 3 1 10
v 4 1 10
v -6 1 8
v -5 1 8
v -4 1 8
v 2 1 8
v 3 1 8
v 4 1 8
v -6 1 5
v -5 1 5
v -4 1 5
v 2 1 5
v 3 1 5
v 4 1 5
v -6 1 3
v -5 1 3
v -4 1 3
v 2 1 3
v 3 1 3
v 4 1 3
v -6 1 -0
v -5 1 -0
v -4 1 -0
v 2 1 -0
v 3 1 -0
v 4 1 -0
v -6 1 -2
v -5 1 -2
v -4 1 -2
v 2 1 -2
v 3 1 -2
v 4 1 -2
v -6 1 -5
v -5 1 -5
v -4 1 -5
v 2 1 -5
v 3 1 -5
v 4 1 -5
v -6 1 -7
v -5 1 -7
v -4 1 -7
v 2 1 -7
v 3 1 -7
v 4 1 -7
v -6 1 -10
v -5 1 -10
v -4 1 -10
v 2 1 -10
v 3 1 -10
v 4 1 -10
v -6 1 -12
v -5 1 -12
v -4 1 -12
v 2 1 -12
v 3 1 -12
v 4 1 -12
v -5 2 16
v -4 2 16
v 2 2 16
v 3 2 16
v -5 2 -15
v -4 2 -15
v 2 2 -15
v 3 2 -15

# faces
f 13/2/1 2/2/1 1/2/1
f 14/2/1 2/2/1 13/2/1
f 15/2/1 4/2/1 3/2/1
f 16/2/1 4/2/1 15/2/1
f 17/2/1 6/2/1 5/2/1
f 18/2/1 6/2/1 17/2/1
f 19/2/1 8/2/1 7/2/1
f 20/2/1 8/2/1 19/2/1
f 21/2/1 10/2/1 9/2/1
f 22/2/1 10/2/1 21/2/1
f 23/2/1 12/2/1 11/2/1
f 24/2/1 12/2/1 23/2/1
f 39/1/1 26/1/1 25/1/1
f 39/1/1 38/1/1 37/1/1
f 39/1/1 37/1/1 36/1/1
f 39/1/1 36/1/1 35/1/1
f 39/1/1 35/1/1 34/1/1
f 39/1/1 34/1/1 33/1/1
f 39/1/1 33/1/1 32/1/1
f 39/1/1 32/1/1 31/1/1
f 39/1/1 31/1/1 30/1/1
f 39/1/1 30/1/1 29/1/1
f 39/1/1 29/1/1 28/1/1
f 39/1/1 28/1/1 27/1/1
f 39/1/1 27/1/1 26/1/1
f 40/1/1 38/1/1 39/1/1
f 55/1/1 42/1/1 41/1/1
f 55/1/1 54/1/1 53/1/1
f 55/1/1 53/1/1 52/1/1
f 55/1/1 52/1/1 51/1/1
f 55/1/1 51/1/1 50/1/1
f 55/1/1 50/1/1 49/1/1
f 55/1/1 49/1/1 48/1/1
f 55/1/1 48/1/1 47/1/1
f 55/1/1 47/1/1 46/1/1
f 55/1/1 46/1/1 45/1/1
f 55/1/1 45/1/1 44/1/1
f 55/1/1 44/1/1 43/1/1
f 55/1/1 43/1/1 42/1/1
f 56/1/1 54/1/1 55/1/1
f 57/1/2 58/1/2 71/1/2
f 69/1/2 70/1/2 71/1/2
f 68/1/2 69/1/2 71/1/2
f 67/1/2 68/1/2 71/1/2
f 66/1/2 67/1/2 71/1/2
f 65/1/2 66/1/2 71/1/2
f 64/1/2 65/1/2 71/1/2
f 63/1/2 64/1/2 71/1/2
f 62/1/2 63/1/2 71/1/2
f 61/1/2 62/1/2 71/1/2
f 60/1/2 61/1/2 71/1/2
f 59/1/2 60/1/2 71/1/2
f 58/1/2 59/1/2 71/1/2
f 71/1/2 70/1/2 72/1/2
f 73/1/2 74/1/2 87/1/2
f 85/1/2 86/1/2 87/1/2
f 84/1/2 85/1/2 87/1/2
f 83/1/2 84/1/2 87/1/2
f 82/1/2 83/1/2 87/1/2
f 81/1/2 82/1/2 87/1/2
f 80/1/2 81/1/2 87/1/2
f 79/1/2 80/1/2 87/1/2
f 78/1/2 79/1/2 87/1/2
f 77/1/2 78/1/2 87/1/2
f 76/1/2 77/1/2 87/1/2
f 75/1/2 76/1/2 87/1/2
f 74/1/2 75/1/2 87/1/2
f 87/1/2 86/1/2 88/1/2
f 89/2/2 90/2/2 101/2/2
f 101/2/2 90/2/2 102/2/2
f 91/2/2 92/2/2 103/2/2
f 103/2/2 92/2/2 104/2/2
f 93/2/2 94/2/2 105/2/2
f 105/2/2 94/2/2 106/2/2
f 95/2/2 96/2/2 107/2/2
f 107/2/2 96/2/2 108/2/2
f 97/2/2 98/2/2 109/2/2
f 109/2/2 98/2/2 110/2/2
f 99/2/2 100/2/2 111/2/2
f 111/2/2 100/2/2 112/2/2
f 115/1/3 114/1/3 113/1/3
f 116/1/3 114/1/3 115/1/3
f 119/1/3 118/1/3 117/1/3
f 120/1/3 118/1/3 119/1/3
f 123/2/3 122/2/3 121/2/3
f 124/2/3 123/2/3 121/2/3
f 125/2/3 124/2/3 121/2/3
f 126/2/3 125/2/3 121/2/3
f 127/2/3 126/2/3 121/2/3
f 128/2/3 126/2/3 127/2/3
f 131/2/3 130/2/3 129/2/3
f 132/2/3 131/2/3 129/2/3
f 133/2/3 132/2/3 129/2/3
f 134/2/3 133/2/3 129/2/3
f 135/2/3 134/2/3 129/2/3
f 136/2/3 134/2/3 135/2/3
f 139/2/3 138/2/3 137/2/3
f 140/2/3 139/2/3 137/2/3
f 141/2/3 140/2/3 137/2/3
f 142/2/3 141/2/3 137/2/3
f 143/2/3 142/2/3 137/2/3
f 144/2/3 142/2/3 143/2/3
f 147/2/3 146/2/3 145/2/3
f 148/2/3 147/2/3 145/2/3
f 149/2/3 148/2/3 145/2/3
f 150/2/3 149/2/3 145/2/3
f 151/2/3 150/2/3 145/2/3
f 152/2/3 150/2/3 151/2/3
f 155/2/3 154/2/3 153/2/3
f 156/2/3 155/2/3 153/2/3
f 157/2/3 156/2/3 153/2/3
f 158/2/3 157/2/3 153/2/3
f 159/2/3 158/2/3 153/2/3
f 160/2/3 158/2/3 159/2/3
f 163/2/3 162/2/3 161/2/3
f 164/2/3 163/2/3 161/2/3
f 165/2/3 164/2/3 161/2/3
f 166/2/3 165/2/3 161/2/3
f 167/2/3 166/2/3 161/2/3
f 168/2/3 166/2/3 167/2/3
f 169/2/4 170/2/4 171/2/4
f 169/2/4 171/2/4 172/2/4
f 169/2/4 172/2/4 173/2/4
f 169/2/4 173/2/4 174/2/4
f 169/2/4 174/2/4 175/2/4
f 175/2/4 174/2/4 176/2/4
f 177/2/4 178/2/4 179/2/4
f 177/2/4 179/2/4 180/2/4
f 177/2/4 180/2/4 181/2/4
f 177/2/4 181/2/4 182/2/4
f 177/2/4 182/2/4 183/2/4
f 183/2/4 182/2/4 184/2/4
f 185/2/4 186/2/4 187/2/4
f 185/2/4 187/2/4 188/2/4
f 185/2/4 188/2/4 189/2/4
f 185/2/4 189/2/4 190/2/4
f 185/2/4 190/2/4 191/2/4
f 191/2/4 190/2/4 192/2/4
f 193/2/4 194/2/4 195/2/4
f 193/2/4 195/2/4 196/2/4
f 193/2/4 196/2/4 197/2/4
f 193/2/4 197/2/4 198/2/4
f 193/2/4 198/2/4 199/2/4
f 199/2/4 198/2/4 200/2/4
f 201/2/4 202/2/4 203/2/4
f 201/2/4 203/2/4 204/2/4
f 201/2/4 204/2/4 205/2/4
f 201/2/4 205/2/4 206/2/4
f 201/2/4 206/2/4 207/2/4
f 207/2/4 206/2/4 208/2/4
f 209/2/4 210/2/4 211/2/4
f 209/2/4 211/2/4 212/2/4
f 209/2/4 212/2/4 213/2/4
f 209/2/4 213/2/4 214/2/4
f 209/2/4 214/2/4 215/2/4
f 215/2/4 214/2/4 216/2/4
f 217/1/4 218/1/4 219/1/4
f 219/1/4 218/1/4 220/1/4
f 221/1/4 222/1/4 223/1/4
f 223/1/4 222/1/4 224/1/4
f 227/2/5 226/2/5 225/2/5
f 228/2/5 226/2/5 227/2/5
f 231/2/5 230/2/5 229/2/5
f 232/2/5 230/2/5 231/2/5
f 235/2/5 234/2/5 233/2/5
f 236/2/5 234/2/5 235/2/5
f 239/2/5 238/2/5 237/2/5
f 240/2/5 238/2/5 239/2/5
f 243/2/5 242/2/5 241/2/5
f 244/2/5 242/2/5 243/2/5
f 247/2/5 246/2/5 245/2/5
f 248/2/5 246/2/5 247/2/5
f 253/1/5 250/1/5 249/1/5
f 254/1/5 250/1/5 253/1/5
f 255/1/5 252/1/5 251/1/5
f 256/1/5 252/1/5 255/1/5
f 261/1/5 258/1/5 257/1/5
f 262/1/5 258/1/5 261/1/5
f 263/1/5 260/1/5 259/1/5
f 264/1/5 260/1/5 263/1/5
f 269/1/5 266/1/5 265/1/5
f 270/1/5 266/1/5 269/1/5
f 271/1/5 268/1/5 267/1/5
f 272/1/5 268/1/5 271/1/5
f 277/1/5 274/1/5 273/1/5
f 278/1/5 274/1/5 277/1/5
f 279/1/5 276/1/5 275/1/5
f 280/1/5 276/1/5 279/1/5
f 285/1/5 282/1/5 281/1/5
f 286/1/5 282/1/5 285/1/5
f 287/1/5 284/1/5 283/1/5
f 288/1/5 284/1/5 287/1/5
f 293/1/5 290/1/5 289/1/5
f 294/1/5 290/1/5 293/1/5
f 295/1/5 292/1/5 291/1/5
f 296/1/5 292/1/5 295/1/5
f 301/1/5 298/1/5 297/1/5
f 302/1/5 298/1/5 301/1/5
f 303/1/5 300/1/5 299/1/5
f 304/1/5 300/1/5 303/1/5
f 305/2/6 306/2/6 311/2/6
f 311/2/6 306/2/6 312/2/6
f 307/2/6 308/2/6 313/2/6
f 313/2/6 308/2/6 314/2/6
f 309/2/6 310/2/6 315/2/6
f 315/2/6 310/2/6 316/2/6
f 317/2/6 318/2/6 323/2/6
f 323/2/6 318/2/6 324/2/6
f 319/2/6 320/2/6 325/2/6
f 325/2/6 320/2/6 326/2/6
f 321/2/6 322/2/6 327/2/6
f 327/2/6 322/2/6 328/2/6
f 329/2/6 330/2/6 335/2/6
f 335/2/6 330/2/6 336/2/6
f 331/2/6 332/2/6 337/2/6
f 337/2/6 332/2/6 338/2/6
f 333/2/6 334/2/6 339/2/6
f 339/2/6 334/2/6 340/2/6
f 341/2/6 342/2/6 347/2/6
f 347/2/6 342/2/6 348/2/6
f 343/2/6 344/2/6 349/2/6
f 349/2/6 344/2/6 350/2/6
f 345/2/6 346/2/6 351/2/6
f 351/2/6 346/2/6 352/2/6
f 353/2/6 354/2/6 359/2/6
f 359/2/6 354/2/6 360/2/6
f 355/2/6 356/2/6 361/2/6
f 361/2/6 356/2/6 362/2/6
f 357/2/6 358/2/6 363/2/6
f 363/2/6 358/2/6 364/2/6
f 365/2/6 366/2/6 371/2/6
f 371/2/6 366/2/6 372/2/6
f 367/2/6 368/2/6 373/2/6
f 373/2/6 368/2/6 374/2/6
f 369/2/6 370/2/6 375/2/6
f 375/2/6 370/2/6 376/2/6
f 377/1/6 378/1/6 381/1/6
f 381/1/6 378/1/6 382/1/6
f 379/1/6 380/1/6 383/1/6
f 383/1/6 380/1/6 384/1/6
