# MagicaVoxel @ Ephtracy

# material
mtllib blocky_top_01.mtl
usemtl palette

# normals
vn -1 0 0
vn 1 0 0
vn 0 0 1
vn 0 0 -1
vn 0 -1 0
vn 0 1 0

# texcoords
vt 0.978516 0.5

# verts
v -62 59 -44
v -62 59 -63
v -62 60 -44
v -62 60 -63
v -61 49 -59
v -61 49 -63
v -61 59 -59
v -61 59 -63
v -54 58 -38
v -54 58 -56
v -54 59 -44
v -54 59 -56
v -54 60 -38
v -54 60 -44
v -46 57 -48
v -46 57 -63
v -46 58 -48
v -46 58 -56
v -46 59 -56
v -46 59 -63
v -27 56 -46
v -27 56 -63
v -27 57 -48
v -27 57 -63
v -27 58 -46
v -27 58 -48
v -27 59 -50
v -27 59 -63
v -27 60 -50
v -27 60 -63
v -21 53 -42
v -21 53 -57
v -21 56 -46
v -21 56 -57
v -21 60 -42
v -21 60 -46
v -19 46 -57
v -19 46 -63
v -19 53 -57
v -19 56 -57
v -19 56 -63
v -12 52 -47
v -12 52 -57
v -12 53 -47
v -12 53 -57
v 4 59 -44
v 4 59 -50
v 4 60 -44
v 4 60 -50
v 11 51 -55
v 11 51 -63
v 11 55 -55
v 11 55 -63
v 21 58 -48
v 21 58 -50
v 21 59 -48
v 21 59 -50
v 22 57 -52
v 22 57 -55
v 22 59 -52
v 22 59 -55
v 25 58 -50
v 25 58 -52
v 25 59 -50
v 25 59 -52
v 32 54 -50
v 32 54 -63
v 32 58 -50
v 32 58 -63
v 39 51 -52
v 39 51 -63
v 39 54 -52
v 39 54 -63
v 43 59 -45
v 43 59 -50
v 43 60 -45
v 43 60 -50
v 49 53 -44
v 49 53 -52
v 49 59 -45
v 49 59 -51
v 49 60 -44
v 49 60 -45
v 49 60 -51
v 49 60 -52
v -52 49 -59
v -52 49 -63
v -52 59 -59
v -52 59 -63
v -45 58 -38
v -45 58 -39
v -45 60 -38
v -45 60 -39
v -44 59 -50
v -44 59 -63
v -44 60 -50
v -44 60 -63
v -23 58 -39
v -23 58 -46
v -23 60 -39
v -23 60 -46
v -12 46 -57
v -12 46 -63
v -12 52 -57
v -12 52 -63
v -12 53 -42
v -12 53 -47
v -12 60 -42
v -12 60 -47
v -6 52 -47
v -6 52 -63
v -6 55 -50
v -6 55 -63
v -6 60 -47
v -6 60 -50
v 11 55 -50
v 11 55 -55
v 11 59 -50
v 11 59 -55
v 23 58 -48
v 23 58 -50
v 23 59 -48
v 23 59 -50
v 27 57 -52
v 27 57 -55
v 27 58 -52
v 27 58 -55
v 28 51 -55
v 28 51 -63
v 28 58 -55
v 28 58 -63
v 34 59 -44
v 34 59 -50
v 34 60 -44
v 34 60 -50
v 47 54 -50
v 47 54 -52
v 47 59 -50
v 47 59 -51
v 47 60 -51
v 47 60 -52
v 49 51 -52
v 49 51 -63
v 49 53 -52
v 49 53 -63
v 63 53 -44
v 63 53 -63
v 63 60 -44
v 63 60 -63
v -54 58 -38
v -54 60 -38
v -45 58 -38
v -45 60 -38
v -45 58 -39
v -45 60 -39
v -23 58 -39
v -23 60 -39
v -21 53 -42
v -21 60 -42
v -12 53 -42
v -12 60 -42
v -62 59 -44
v -62 60 -44
v -54 59 -44
v -54 60 -44
v 4 59 -44
v 4 60 -44
v 34 59 -44
v 34 60 -44
v 49 53 -44
v 49 60 -44
v 63 53 -44
v 63 60 -44
v 43 59 -45
v 43 60 -45
v 49 59 -45
v 49 60 -45
v -27 56 -46
v -27 58 -46
v -23 58 -46
v -23 60 -46
v -21 56 -46
v -21 60 -46
v -12 52 -47
v -12 53 -47
v -12 60 -47
v -6 52 -47
v -6 60 -47
v -46 57 -48
v -46 58 -48
v -27 57 -48
v -27 58 -48
v 21 58 -48
v 21 59 -48
v 23 58 -48
v 23 59 -48
v -6 55 -50
v -6 60 -50
v 4 59 -50
v 4 60 -50
v 11 55 -50
v 11 59 -50
v 25 58 -50
v 25 59 -50
v 32 54 -50
v 32 58 -50
v 34 59 -50
v 34 60 -50
v 43 59 -50
v 43 60 -50
v 47 54 -50
v 47 59 -50
v 22 57 -52
v 22 59 -52
v 25 58 -52
v 25 59 -52
v 27 57 -52
v 27 58 -52
v 39 51 -52
v 39 54 -52
v 47 54 -52
v 47 60 -52
v 49 51 -52
v 49 53 -52
v 49 60 -52
v 11 51 -55
v 11 55 -55
v 11 59 -55
v 22 57 -55
v 22 59 -55
v 27 57 -55
v 27 58 -55
v 28 51 -55
v 28 58 -55
v -19 46 -57
v -19 53 -57
v -12 46 -57
v -12 52 -57
v -12 53 -57
v -61 49 -59
v -61 59 -59
v -52 49 -59
v -52 59 -59
v -44 59 -50
v -44 60 -50
v -27 59 -50
v -27 60 -50
v 21 58 -50
v 21 59 -50
v 23 58 -50
v 23 59 -50
v 47 59 -51
v 47 60 -51
v 49 59 -51
v 49 60 -51
v -54 58 -56
v -54 59 -56
v -46 58 -56
v -46 59 -56
v -21 53 -57
v -21 56 -57
v -19 53 -57
v -19 56 -57
v -62 59 -63
v -62 60 -63
v -61 49 -63
v -61 59 -63
v -52 49 -63
v -52 59 -63
v -46 57 -63
v -46 59 -63
v -44 59 -63
v -44 60 -63
v -27 56 -63
v -27 57 -63
v -27 59 -63
v -27 60 -63
v -19 46 -63
v -19 56 -63
v -12 46 -63
v -12 52 -63
v -6 52 -63
v -6 55 -63
v 11 51 -63
v 11 55 -63
v 28 51 -63
v 28 58 -63
v 32 54 -63
v 32 58 -63
v 39 51 -63
v 39 54 -63
v 49 51 -63
v 49 53 -63
v 63 53 -63
v 63 60 -63
v -19 46 -57
v -12 46 -57
v -19 46 -63
v -12 46 -63
v -61 49 -59
v -52 49 -59
v -61 49 -63
v -52 49 -63
v 39 51 -52
v 49 51 -52
v 11 51 -55
v 28 51 -55
v 11 51 -63
v 28 51 -63
v 39 51 -63
v 49 51 -63
v -12 52 -47
v -6 52 -47
v -12 52 -57
v -12 52 -63
v -6 52 -63
v -21 53 -42
v -12 53 -42
v 49 53 -44
v 63 53 -44
v -12 53 -47
v 49 53 -52
v -21 53 -57
v -19 53 -57
v -12 53 -57
v 49 53 -63
v 63 53 -63
v 32 54 -50
v 47 54 -50
v 39 54 -52
v 47 54 -52
v 32 54 -63
v 39 54 -63
v -6 55 -50
v 11 55 -50
v 11 55 -55
v -6 55 -63
v 11 55 -63
v -27 56 -46
v -21 56 -46
v -21 56 -57
v -19 56 -57
v -27 56 -63
v -19 56 -63
v -46 57 -48
v -27 57 -48
v 22 57 -52
v 27 57 -52
v 22 57 -55
v 27 57 -55
v -46 57 -63
v -27 57 -63
v -54 58 -38
v -45 58 -38
v -45 58 -39
v -23 58 -39
v -27 58 -46
v -23 58 -46
v -46 58 -48
v -27 58 -48
v 21 58 -48
v 23 58 -48
v 21 58 -50
v 23 58 -50
v 25 58 -50
v 32 58 -50
v 25 58 -52
v 27 58 -52
v 27 58 -55
v 28 58 -55
v -54 58 -56
v -46 58 -56
v 28 58 -63
v 32 58 -63
v -62 59 -44
v -54 59 -44
v 4 59 -44
v 34 59 -44
v 43 59 -45
v 49 59 -45
v 21 59 -48
v 23 59 -48
v 4 59 -50
v 11 59 -50
v 21 59 -50
v 23 59 -50
v 25 59 -50
v 34 59 -50
v 43 59 -50
v 47 59 -50
v 47 59 -51
v 49 59 -51
v 22 59 -52
v 25 59 -52
v 11 59 -55
v 22 59 -55
v -54 59 -56
v -46 59 -56
v -61 59 -59
v -52 59 -59
v -62 59 -63
v -61 59 -63
v -52 59 -63
v -46 59 -63
v -44 59 -50
v -27 59 -50
v -44 59 -63
v -27 59 -63
v -54 60 -38
v -45 60 -38
v -45 60 -39
v -23 60 -39
v -21 60 -42
v -12 60 -42
v -62 60 -44
v -54 60 -44
v 4 60 -44
v 34 60 -44
v 49 60 -44
v 63 60 -44
v 43 60 -45
v 49 60 -45
v -23 60 -46
v -21 60 -46
v -12 60 -47
v -6 60 -47
v -44 60 -50
v -27 60 -50
v -6 60 -50
v 4 60 -50
v 34 60 -50
v 43 60 -50
v 47 60 -51
v 49 60 -51
v 47 60 -52
v 49 60 -52
v -62 60 -63
v -44 60 -63
v -27 60 -63
v 63 60 -63

# faces
f 3/1/1 2/1/1 1/1/1
f 4/1/1 2/1/1 3/1/1
f 7/1/1 6/1/1 5/1/1
f 8/1/1 6/1/1 7/1/1
f 11/1/1 10/1/1 9/1/1
f 12/1/1 10/1/1 11/1/1
f 13/1/1 11/1/1 9/1/1
f 14/1/1 11/1/1 13/1/1
f 17/1/1 16/1/1 15/1/1
f 18/1/1 16/1/1 17/1/1
f 19/1/1 16/1/1 18/1/1
f 20/1/1 16/1/1 19/1/1
f 23/1/1 22/1/1 21/1/1
f 24/1/1 22/1/1 23/1/1
f 25/1/1 23/1/1 21/1/1
f 26/1/1 23/1/1 25/1/1
f 29/1/1 28/1/1 27/1/1
f 30/1/1 28/1/1 29/1/1
f 33/1/1 32/1/1 31/1/1
f 34/1/1 32/1/1 33/1/1
f 35/1/1 33/1/1 31/1/1
f 36/1/1 33/1/1 35/1/1
f 39/1/1 38/1/1 37/1/1
f 40/1/1 38/1/1 39/1/1
f 41/1/1 38/1/1 40/1/1
f 44/1/1 43/1/1 42/1/1
f 45/1/1 43/1/1 44/1/1
f 48/1/1 47/1/1 46/1/1
f 49/1/1 47/1/1 48/1/1
f 52/1/1 51/1/1 50/1/1
f 53/1/1 51/1/1 52/1/1
f 56/1/1 55/1/1 54/1/1
f 57/1/1 55/1/1 56/1/1
f 60/1/1 59/1/1 58/1/1
f 61/1/1 59/1/1 60/1/1
f 64/1/1 63/1/1 62/1/1
f 65/1/1 63/1/1 64/1/1
f 68/1/1 67/1/1 66/1/1
f 69/1/1 67/1/1 68/1/1
f 72/1/1 71/1/1 70/1/1
f 73/1/1 71/1/1 72/1/1
f 76/1/1 75/1/1 74/1/1
f 77/1/1 75/1/1 76/1/1
f 80/1/1 79/1/1 78/1/1
f 81/1/1 79/1/1 80/1/1
f 82/1/1 80/1/1 78/1/1
f 83/1/1 80/1/1 82/1/1
f 84/1/1 79/1/1 81/1/1
f 85/1/1 79/1/1 84/1/1
f 86/1/2 87/1/2 88/1/2
f 88/1/2 87/1/2 89/1/2
f 90/1/2 91/1/2 92/1/2
f 92/1/2 91/1/2 93/1/2
f 94/1/2 95/1/2 96/1/2
f 96/1/2 95/1/2 97/1/2
f 98/1/2 99/1/2 100/1/2
f 100/1/2 99/1/2 101/1/2
f 102/1/2 103/1/2 104/1/2
f 104/1/2 103/1/2 105/1/2
f 106/1/2 107/1/2 108/1/2
f 108/1/2 107/1/2 109/1/2
f 110/1/2 111/1/2 112/1/2
f 112/1/2 111/1/2 113/1/2
f 110/1/2 112/1/2 114/1/2
f 114/1/2 112/1/2 115/1/2
f 116/1/2 117/1/2 118/1/2
f 118/1/2 117/1/2 119/1/2
f 120/1/2 121/1/2 122/1/2
f 122/1/2 121/1/2 123/1/2
f 124/1/2 125/1/2 126/1/2
f 126/1/2 125/1/2 127/1/2
f 128/1/2 129/1/2 130/1/2
f 130/1/2 129/1/2 131/1/2
f 132/1/2 133/1/2 134/1/2
f 134/1/2 133/1/2 135/1/2
f 136/1/2 137/1/2 138/1/2
f 138/1/2 137/1/2 139/1/2
f 139/1/2 137/1/2 140/1/2
f 140/1/2 137/1/2 141/1/2
f 142/1/2 143/1/2 144/1/2
f 144/1/2 143/1/2 145/1/2
f 146/1/2 147/1/2 148/1/2
f 148/1/2 147/1/2 149/1/2
f 152/1/3 151/1/3 150/1/3
f 153/1/3 151/1/3 152/1/3
f 156/1/3 155/1/3 154/1/3
f 157/1/3 155/1/3 156/1/3
f 160/1/3 159/1/3 158/1/3
f 161/1/3 159/1/3 160/1/3
f 164/1/3 163/1/3 162/1/3
f 165/1/3 163/1/3 164/1/3
f 168/1/3 167/1/3 166/1/3
f 169/1/3 167/1/3 168/1/3
f 172/1/3 171/1/3 170/1/3
f 173/1/3 171/1/3 172/1/3
f 176/1/3 175/1/3 174/1/3
f 177/1/3 175/1/3 176/1/3
f 180/1/3 179/1/3 178/1/3
f 182/1/3 180/1/3 178/1/3
f 182/1/3 181/1/3 180/1/3
f 183/1/3 181/1/3 182/1/3
f 187/1/3 185/1/3 184/1/3
f 187/1/3 186/1/3 185/1/3
f 188/1/3 186/1/3 187/1/3
f 191/1/3 190/1/3 189/1/3
f 192/1/3 190/1/3 191/1/3
f 195/1/3 194/1/3 193/1/3
f 196/1/3 194/1/3 195/1/3
f 199/1/3 198/1/3 197/1/3
f 200/1/3 198/1/3 199/1/3
f 201/1/3 199/1/3 197/1/3
f 202/1/3 199/1/3 201/1/3
f 206/1/3 204/1/3 203/1/3
f 207/1/3 204/1/3 206/1/3
f 207/1/3 206/1/3 205/1/3
f 209/1/3 207/1/3 205/1/3
f 209/1/3 208/1/3 207/1/3
f 210/1/3 208/1/3 209/1/3
f 211/1/3 209/1/3 205/1/3
f 212/1/3 209/1/3 211/1/3
f 215/1/3 214/1/3 213/1/3
f 216/1/3 214/1/3 215/1/3
f 217/1/3 215/1/3 213/1/3
f 218/1/3 215/1/3 217/1/3
f 221/1/3 220/1/3 219/1/3
f 223/1/3 221/1/3 219/1/3
f 223/1/3 222/1/3 221/1/3
f 224/1/3 222/1/3 223/1/3
f 225/1/3 222/1/3 224/1/3
f 229/1/3 227/1/3 226/1/3
f 229/1/3 228/1/3 227/1/3
f 230/1/3 228/1/3 229/1/3
f 231/1/3 229/1/3 226/1/3
f 233/1/3 231/1/3 226/1/3
f 233/1/3 232/1/3 231/1/3
f 234/1/3 232/1/3 233/1/3
f 237/1/3 236/1/3 235/1/3
f 238/1/3 236/1/3 237/1/3
f 239/1/3 236/1/3 238/1/3
f 242/1/3 241/1/3 240/1/3
f 243/1/3 241/1/3 242/1/3
f 244/1/4 245/1/4 246/1/4
f 246/1/4 245/1/4 247/1/4
f 248/1/4 249/1/4 250/1/4
f 250/1/4 249/1/4 251/1/4
f 252/1/4 253/1/4 254/1/4
f 254/1/4 253/1/4 255/1/4
f 256/1/4 257/1/4 258/1/4
f 258/1/4 257/1/4 259/1/4
f 260/1/4 261/1/4 262/1/4
f 262/1/4 261/1/4 263/1/4
f 264/1/4 265/1/4 267/1/4
f 266/1/4 267/1/4 268/1/4
f 267/1/4 265/1/4 269/1/4
f 268/1/4 267/1/4 269/1/4
f 269/1/4 265/1/4 271/1/4
f 271/1/4 265/1/4 272/1/4
f 270/1/4 271/1/4 272/1/4
f 272/1/4 265/1/4 273/1/4
f 270/1/4 272/1/4 275/1/4
f 275/1/4 272/1/4 276/1/4
f 274/1/4 275/1/4 279/1/4
f 276/1/4 277/1/4 279/1/4
f 275/1/4 276/1/4 279/1/4
f 278/1/4 279/1/4 280/1/4
f 280/1/4 279/1/4 281/1/4
f 281/1/4 279/1/4 282/1/4
f 282/1/4 279/1/4 283/1/4
f 283/1/4 279/1/4 285/1/4
f 284/1/4 285/1/4 286/1/4
f 279/1/4 277/1/4 287/1/4
f 286/1/4 285/1/4 287/1/4
f 285/1/4 279/1/4 287/1/4
f 287/1/4 277/1/4 289/1/4
f 288/1/4 289/1/4 291/1/4
f 290/1/4 291/1/4 292/1/4
f 292/1/4 291/1/4 293/1/4
f 293/1/4 291/1/4 294/1/4
f 289/1/4 277/1/4 295/1/4
f 294/1/4 291/1/4 295/1/4
f 291/1/4 289/1/4 295/1/4
f 298/1/5 297/1/5 296/1/5
f 299/1/5 297/1/5 298/1/5
f 302/1/5 301/1/5 300/1/5
f 303/1/5 301/1/5 302/1/5
f 308/1/5 307/1/5 306/1/5
f 309/1/5 307/1/5 308/1/5
f 310/1/5 305/1/5 304/1/5
f 311/1/5 305/1/5 310/1/5
f 314/1/5 313/1/5 312/1/5
f 315/1/5 313/1/5 314/1/5
f 316/1/5 313/1/5 315/1/5
f 321/1/5 318/1/5 317/1/5
f 322/1/5 320/1/5 319/1/5
f 323/1/5 321/1/5 317/1/5
f 324/1/5 321/1/5 323/1/5
f 325/1/5 321/1/5 324/1/5
f 326/1/5 320/1/5 322/1/5
f 327/1/5 320/1/5 326/1/5
f 330/1/5 329/1/5 328/1/5
f 331/1/5 329/1/5 330/1/5
f 332/1/5 330/1/5 328/1/5
f 333/1/5 330/1/5 332/1/5
f 336/1/5 335/1/5 334/1/5
f 337/1/5 336/1/5 334/1/5
f 338/1/5 336/1/5 337/1/5
f 341/1/5 340/1/5 339/1/5
f 343/1/5 341/1/5 339/1/5
f 343/1/5 342/1/5 341/1/5
f 344/1/5 342/1/5 343/1/5
f 349/1/5 348/1/5 347/1/5
f 350/1/5 348/1/5 349/1/5
f 351/1/5 346/1/5 345/1/5
f 352/1/5 346/1/5 351/1/5
f 355/1/5 354/1/5 353/1/5
f 357/1/5 356/1/5 355/1/5
f 358/1/5 356/1/5 357/1/5
f 359/1/5 355/1/5 353/1/5
f 359/1/5 357/1/5 355/1/5
f 360/1/5 357/1/5 359/1/5
f 363/1/5 362/1/5 361/1/5
f 364/1/5 362/1/5 363/1/5
f 367/1/5 366/1/5 365/1/5
f 368/1/5 366/1/5 367/1/5
f 369/1/5 366/1/5 368/1/5
f 370/1/5 366/1/5 369/1/5
f 371/1/5 359/1/5 353/1/5
f 372/1/5 359/1/5 371/1/5
f 373/1/5 366/1/5 370/1/5
f 374/1/5 366/1/5 373/1/5
f 381/1/5 378/1/5 377/1/5
f 382/1/5 378/1/5 381/1/5
f 383/1/5 381/1/5 377/1/5
f 384/1/5 381/1/5 383/1/5
f 385/1/5 381/1/5 384/1/5
f 386/1/5 378/1/5 382/1/5
f 387/1/5 378/1/5 386/1/5
f 388/1/5 378/1/5 387/1/5
f 389/1/5 380/1/5 379/1/5
f 390/1/5 380/1/5 389/1/5
f 391/1/5 380/1/5 390/1/5
f 392/1/5 380/1/5 391/1/5
f 393/1/5 385/1/5 384/1/5
f 393/1/5 387/1/5 386/1/5
f 393/1/5 386/1/5 385/1/5
f 394/1/5 387/1/5 393/1/5
f 395/1/5 393/1/5 384/1/5
f 396/1/5 393/1/5 395/1/5
f 397/1/5 376/1/5 375/1/5
f 399/1/5 397/1/5 375/1/5
f 399/1/5 398/1/5 397/1/5
f 400/1/5 398/1/5 399/1/5
f 401/1/5 399/1/5 375/1/5
f 402/1/5 399/1/5 401/1/5
f 403/1/5 398/1/5 400/1/5
f 404/1/5 398/1/5 403/1/5
f 405/1/6 406/1/6 407/1/6
f 407/1/6 406/1/6 408/1/6
f 409/1/6 410/1/6 411/1/6
f 409/1/6 411/1/6 416/1/6
f 411/1/6 412/1/6 416/1/6
f 419/1/6 420/1/6 422/1/6
f 416/1/6 412/1/6 423/1/6
f 415/1/6 416/1/6 423/1/6
f 413/1/6 414/1/6 424/1/6
f 424/1/6 414/1/6 425/1/6
f 423/1/6 424/1/6 425/1/6
f 415/1/6 423/1/6 427/1/6
f 425/1/6 426/1/6 427/1/6
f 423/1/6 425/1/6 427/1/6
f 427/1/6 426/1/6 428/1/6
f 428/1/6 426/1/6 429/1/6
f 417/1/6 418/1/6 430/1/6
f 430/1/6 418/1/6 431/1/6
f 421/1/6 422/1/6 432/1/6
f 430/1/6 431/1/6 433/1/6
f 431/1/6 432/1/6 433/1/6
f 432/1/6 422/1/6 433/1/6
f 428/1/6 429/1/6 433/1/6
f 429/1/6 430/1/6 433/1/6
f 422/1/6 420/1/6 434/1/6
f 433/1/6 422/1/6 434/1/6
f 428/1/6 433/1/6 435/1/6
f 434/1/6 420/1/6 436/1/6
f 415/1/6 427/1/6 437/1/6
f 437/1/6 427/1/6 438/1/6
f 428/1/6 435/1/6 439/1/6
f 435/1/6 436/1/6 439/1/6
f 436/1/6 420/1/6 440/1/6
f 439/1/6 436/1/6 440/1/6
