# MagicaVoxel @ Ephtracy

# material
mtllib metal_cart.mtl
usemtl palette

# normals
vn -1 0 0
vn 1 0 0
vn 0 0 1
vn 0 0 -1
vn 0 -1 0
vn 0 1 0

# texcoords
vt 0.873047 0.5
vt 0.982422 0.5
vt 0.986328 0.5
vt 0.990234 0.5

# verts
v -8 3 4
v -8 3 -4
v -8 4 5
v -8 4 4
v -8 4 -4
v -8 4 -5
v -8 6 6
v -8 6 5
v -8 6 4
v -8 6 -4
v -8 6 -5
v -8 6 -6
v -8 13 5
v -8 13 -5
v -8 14 6
v -8 14 -6
v -7 0 5
v -7 0 4
v -7 0 -4
v -7 0 -5
v -7 2 4
v -7 2 -4
v -7 3 4
v -7 3 -4
v -7 4 5
v -7 4 4
v -7 4 -4
v -7 4 -5
v -7 15 1
v -7 15 -1
v -7 16 1
v -7 16 -1
v -6 1 4
v -6 1 -4
v -6 2 4
v -6 2 -4
v -5 4 1
v -5 4 -1
v -5 15 1
v -5 15 -1
v 3 0 5
v 3 0 4
v 3 0 -4
v 3 0 -5
v 3 2 4
v 3 2 -4
v 3 3 4
v 3 3 -4
v 3 4 5
v 3 4 4
v 3 4 -4
v 3 4 -5
v 4 1 4
v 4 1 -4
v 4 2 4
v 4 2 -4
v 7 4 4
v 7 4 -4
v 7 5 4
v 7 5 -4
v 7 6 5
v 7 6 4
v 7 6 -4
v 7 6 -5
v 7 13 5
v 7 13 -5
v 7 14 5
v 7 14 -5
v -7 4 4
v -7 4 -4
v -7 5 4
v -7 5 -4
v -7 6 5
v -7 6 4
v -7 6 -4
v -7 6 -5
v -7 13 5
v -7 13 -5
v -7 14 5
v -7 14 -5
v -4 1 4
v -4 1 -4
v -4 2 4
v -4 2 -4
v -4 4 1
v -4 4 -1
v -4 16 1
v -4 16 -1
v -3 0 5
v -3 0 4
v -3 0 -4
v -3 0 -5
v -3 2 4
v -3 2 -4
v -3 3 4
v -3 3 -4
v -3 4 5
v -3 4 4
v -3 4 -4
v -3 4 -5
v 6 1 4
v 6 1 -4
v 6 2 4
v 6 2 -4
v 7 0 5
v 7 0 4
v 7 0 -4
v 7 0 -5
v 7 2 4
v 7 2 -4
v 7 3 4
v 7 3 -4
v 7 4 5
v 7 4 4
v 7 4 -4
v 7 4 -5
v 8 3 4
v 8 3 -4
v 8 4 5
v 8 4 4
v 8 4 -4
v 8 4 -5
v 8 6 6
v 8 6 5
v 8 6 4
v 8 6 -4
v 8 6 -5
v 8 6 -6
v 8 13 5
v 8 13 -5
v 8 14 6
v 8 14 -6
v -8 6 6
v -8 14 6
v -7 6 6
v -7 13 6
v 7 6 6
v 7 13 6
v 8 6 6
v 8 14 6
v -8 4 5
v -8 6 5
v -7 0 5
v -7 4 5
v -7 5 5
v -7 6 5
v -6 1 5
v -6 3 5
v -4 1 5
v -4 3 5
v -3 0 5
v -3 4 5
v 3 0 5
v 3 4 5
v 4 1 5
v 4 3 5
v 6 1 5
v 6 3 5
v 7 0 5
v 7 4 5
v 7 5 5
v 7 6 5
v 8 4 5
v 8 6 5
v -8 3 4
v -8 4 4
v -7 3 4
v -7 4 4
v -3 2 4
v -3 3 4
v -3 4 4
v 3 2 4
v 3 3 4
v 3 4 4
v 7 3 4
v 7 4 4
v 8 3 4
v 8 4 4
v -7 15 1
v -7 16 1
v -5 4 1
v -5 15 1
v -4 4 1
v -4 16 1
v -7 0 -4
v -7 2 -4
v -7 4 -4
v -7 5 -4
v -7 6 -4
v -6 1 -4
v -6 2 -4
v -4 1 -4
v -4 2 -4
v -3 0 -4
v -3 2 -4
v -3 4 -4
v 3 0 -4
v 3 2 -4
v 3 4 -4
v 4 1 -4
v 4 2 -4
v 6 1 -4
v 6 2 -4
v 7 0 -4
v 7 2 -4
v 7 4 -4
v 7 5 -4
v 7 6 -4
v -7 6 -5
v -7 13 -5
v -7 14 -5
v 7 6 -5
v 7 13 -5
v 7 14 -5
v -7 6 5
v -7 13 5
v -7 14 5
v 7 6 5
v 7 13 5
v 7 14 5
v -7 0 4
v -7 2 4
v -7 4 4
v -7 5 4
v -7 6 4
v -6 1 4
v -6 2 4
v -4 1 4
v -4 2 4
v -3 0 4
v -3 2 4
v -3 4 4
v 3 0 4
v 3 2 4
v 3 4 4
v 4 1 4
v 4 2 4
v 6 1 4
v 6 2 4
v 7 0 4
v 7 2 4
v 7 4 4
v 7 5 4
v 7 6 4
v -7 15 -1
v -7 16 -1
v -5 4 -1
v -5 15 -1
v -4 4 -1
v -4 16 -1
v -8 3 -4
v -8 4 -4
v -7 3 -4
v -7 4 -4
v -3 2 -4
v -3 3 -4
v -3 4 -4
v 3 2 -4
v 3 3 -4
v 3 4 -4
v 7 3 -4
v 7 4 -4
v 8 3 -4
v 8 4 -4
v -8 4 -5
v -8 6 -5
v -7 0 -5
v -7 4 -5
v -7 5 -5
v -7 6 -5
v -6 1 -5
v -6 3 -5
v -4 1 -5
v -4 3 -5
v -3 0 -5
v -3 4 -5
v 3 0 -5
v 3 4 -5
v 4 1 -5
v 4 3 -5
v 6 1 -5
v 6 3 -5
v 7 0 -5
v 7 4 -5
v 7 5 -5
v 7 6 -5
v 8 4 -5
v 8 6 -5
v -8 6 -6
v -8 14 -6
v -7 6 -6
v -7 13 -6
v 7 6 -6
v 7 13 -6
v 8 6 -6
v 8 14 -6
v -7 0 5
v -3 0 5
v 3 0 5
v 7 0 5
v -7 0 4
v -3 0 4
v 3 0 4
v 7 0 4
v -7 0 -4
v -3 0 -4
v 3 0 -4
v 7 0 -4
v -7 0 -5
v -3 0 -5
v 3 0 -5
v 7 0 -5
v -6 1 4
v -4 1 4
v 4 1 4
v 6 1 4
v -6 1 -4
v -4 1 -4
v 4 1 -4
v 6 1 -4
v -7 2 4
v -6 2 4
v -4 2 4
v -3 2 4
v 3 2 4
v 4 2 4
v 6 2 4
v 7 2 4
v -7 2 -4
v -6 2 -4
v -4 2 -4
v -3 2 -4
v 3 2 -4
v 4 2 -4
v 6 2 -4
v 7 2 -4
v -8 3 4
v -7 3 4
v 7 3 4
v 8 3 4
v -8 3 -4
v -7 3 -4
v 7 3 -4
v 8 3 -4
v -8 4 5
v -7 4 5
v -3 4 5
v 3 4 5
v 7 4 5
v 8 4 5
v -8 4 4
v -7 4 4
v -3 4 4
v 3 4 4
v 7 4 4
v 8 4 4
v -8 4 -4
v -7 4 -4
v -3 4 -4
v 3 4 -4
v 7 4 -4
v 8 4 -4
v -8 4 -5
v -7 4 -5
v -3 4 -5
v 3 4 -5
v 7 4 -5
v 8 4 -5
v -8 6 6
v -7 6 6
v 7 6 6
v 8 6 6
v -8 6 5
v -7 6 5
v 7 6 5
v 8 6 5
v -8 6 -5
v -7 6 -5
v 7 6 -5
v 8 6 -5
v -8 6 -6
v -7 6 -6
v 7 6 -6
v 8 6 -6
v -7 15 1
v -5 15 1
v -7 15 -1
v -5 15 -1
v -7 4 4
v -3 4 4
v 3 4 4
v 7 4 4
v -3 4 3
v 3 4 3
v -5 4 1
v -4 4 1
v -5 4 -1
v -4 4 -1
v -3 4 -3
v 3 4 -3
v -7 4 -4
v -3 4 -4
v 3 4 -4
v 7 4 -4
v -7 6 5
v 7 6 5
v -7 6 4
v 7 6 4
v -7 6 -4
v 7 6 -4
v -7 6 -5
v 7 6 -5
v -8 14 6
v 8 14 6
v -7 14 5
v 7 14 5
v -7 14 -5
v 7 14 -5
v -8 14 -6
v 8 14 -6
v -7 16 1
v -4 16 1
v -7 16 -1
v -4 16 -1

# faces
f 4/3/1 2/3/1 1/3/1
f 5/3/1 2/3/1 4/3/1
f 8/3/1 4/3/1 3/3/1
f 9/2/1 5/2/1 4/2/1
f 9/3/1 4/3/1 8/3/1
f 10/3/1 6/3/1 5/3/1
f 10/2/1 5/2/1 9/2/1
f 11/3/1 6/3/1 10/3/1
f 13/2/1 9/2/1 8/2/1
f 13/3/1 8/3/1 7/3/1
f 13/2/1 11/2/1 10/2/1
f 13/2/1 10/2/1 9/2/1
f 14/3/1 12/3/1 11/3/1
f 14/2/1 11/2/1 13/2/1
f 15/3/1 13/3/1 7/3/1
f 15/3/1 14/3/1 13/3/1
f 16/3/1 12/3/1 14/3/1
f 16/3/1 14/3/1 15/3/1
f 21/4/1 18/4/1 17/4/1
f 22/4/1 20/4/1 19/4/1
f 23/4/1 21/4/1 17/4/1
f 23/4/1 22/4/1 21/4/1
f 24/4/1 20/4/1 22/4/1
f 24/4/1 22/4/1 23/4/1
f 25/4/1 23/4/1 17/4/1
f 26/4/1 23/4/1 25/4/1
f 27/4/1 20/4/1 24/4/1
f 28/4/1 20/4/1 27/4/1
f 31/1/1 30/1/1 29/1/1
f 32/1/1 30/1/1 31/1/1
f 35/4/1 34/4/1 33/4/1
f 36/4/1 34/4/1 35/4/1
f 39/1/1 38/1/1 37/1/1
f 40/1/1 38/1/1 39/1/1
f 45/4/1 42/4/1 41/4/1
f 46/4/1 44/4/1 43/4/1
f 47/4/1 45/4/1 41/4/1
f 48/4/1 44/4/1 46/4/1
f 49/4/1 47/4/1 41/4/1
f 50/4/1 47/4/1 49/4/1
f 51/4/1 44/4/1 48/4/1
f 52/4/1 44/4/1 51/4/1
f 55/4/1 54/4/1 53/4/1
f 56/4/1 54/4/1 55/4/1
f 59/2/1 58/2/1 57/2/1
f 60/2/1 58/2/1 59/2/1
f 62/2/1 60/2/1 59/2/1
f 63/2/1 60/2/1 62/2/1
f 65/2/1 63/2/1 62/2/1
f 65/2/1 64/2/1 63/2/1
f 65/2/1 62/2/1 61/2/1
f 66/2/1 64/2/1 65/2/1
f 67/3/1 66/3/1 65/3/1
f 68/3/1 66/3/1 67/3/1
f 69/2/2 70/2/2 71/2/2
f 71/2/2 70/2/2 72/2/2
f 71/2/2 72/2/2 74/2/2
f 74/2/2 72/2/2 75/2/2
f 74/2/2 75/2/2 77/2/2
f 75/2/2 76/2/2 77/2/2
f 73/2/2 74/2/2 77/2/2
f 77/2/2 76/2/2 78/2/2
f 77/3/2 78/3/2 79/3/2
f 79/3/2 78/3/2 80/3/2
f 81/4/2 82/4/2 83/4/2
f 83/4/2 82/4/2 84/4/2
f 85/1/2 86/1/2 87/1/2
f 87/1/2 86/1/2 88/1/2
f 89/4/2 90/4/2 93/4/2
f 91/4/2 92/4/2 94/4/2
f 89/4/2 93/4/2 95/4/2
f 94/4/2 92/4/2 96/4/2
f 89/4/2 95/4/2 97/4/2
f 97/4/2 95/4/2 98/4/2
f 96/4/2 92/4/2 99/4/2
f 99/4/2 92/4/2 100/4/2
f 101/4/2 102/4/2 103/4/2
f 103/4/2 102/4/2 104/4/2
f 105/4/2 106/4/2 109/4/2
f 107/4/2 108/4/2 110/4/2
f 105/4/2 109/4/2 111/4/2
f 109/4/2 110/4/2 111/4/2
f 110/4/2 108/4/2 112/4/2
f 111/4/2 110/4/2 112/4/2
f 105/4/2 111/4/2 113/4/2
f 113/4/2 111/4/2 114/4/2
f 112/4/2 108/4/2 115/4/2
f 115/4/2 108/4/2 116/4/2
f 117/3/2 118/3/2 120/3/2
f 120/3/2 118/3/2 121/3/2
f 119/3/2 120/3/2 124/3/2
f 120/2/2 121/2/2 125/2/2
f 124/3/2 120/3/2 125/3/2
f 121/3/2 122/3/2 126/3/2
f 125/2/2 121/2/2 126/2/2
f 126/3/2 122/3/2 127/3/2
f 124/2/2 125/2/2 129/2/2
f 123/3/2 124/3/2 129/3/2
f 126/2/2 127/2/2 129/2/2
f 125/2/2 126/2/2 129/2/2
f 127/3/2 128/3/2 130/3/2
f 129/2/2 127/2/2 130/2/2
f 123/3/2 129/3/2 131/3/2
f 129/3/2 130/3/2 131/3/2
f 130/3/2 128/3/2 132/3/2
f 131/3/2 130/3/2 132/3/2
f 135/3/3 134/3/3 133/3/3
f 136/3/3 134/3/3 135/3/3
f 137/2/3 136/2/3 135/2/3
f 138/3/3 134/3/3 136/3/3
f 138/2/3 136/2/3 137/2/3
f 139/3/3 138/3/3 137/3/3
f 140/3/3 134/3/3 138/3/3
f 140/3/3 138/3/3 139/3/3
f 144/3/3 142/3/3 141/3/3
f 145/3/3 142/3/3 144/3/3
f 146/3/3 142/3/3 145/3/3
f 147/4/3 144/4/3 143/4/3
f 148/4/3 144/4/3 147/4/3
f 149/4/3 147/4/3 143/4/3
f 149/3/3 148/3/3 147/3/3
f 150/4/3 144/4/3 148/4/3
f 150/3/3 148/3/3 149/3/3
f 151/4/3 149/4/3 143/4/3
f 151/4/3 150/4/3 149/4/3
f 152/3/3 145/3/3 144/3/3
f 152/4/3 150/4/3 151/4/3
f 152/4/3 144/4/3 150/4/3
f 154/3/3 145/3/3 152/3/3
f 155/4/3 154/4/3 153/4/3
f 156/4/3 154/4/3 155/4/3
f 157/4/3 155/4/3 153/4/3
f 157/3/3 156/3/3 155/3/3
f 158/4/3 154/4/3 156/4/3
f 158/3/3 156/3/3 157/3/3
f 159/4/3 157/4/3 153/4/3
f 159/4/3 158/4/3 157/4/3
f 160/3/3 145/3/3 154/3/3
f 160/4/3 158/4/3 159/4/3
f 160/4/3 154/4/3 158/4/3
f 161/2/3 146/2/3 145/2/3
f 161/3/3 145/3/3 160/3/3
f 162/2/3 146/2/3 161/2/3
f 163/3/3 161/3/3 160/3/3
f 163/3/3 162/3/3 161/3/3
f 164/3/3 162/3/3 163/3/3
f 167/3/3 166/3/3 165/3/3
f 168/3/3 166/3/3 167/3/3
f 172/4/3 170/4/3 169/4/3
f 173/3/3 171/3/3 170/3/3
f 173/4/3 170/4/3 172/4/3
f 174/3/3 171/3/3 173/3/3
f 177/3/3 176/3/3 175/3/3
f 178/3/3 176/3/3 177/3/3
f 182/1/3 180/1/3 179/1/3
f 183/1/3 182/1/3 181/1/3
f 184/1/3 180/1/3 182/1/3
f 184/1/3 182/1/3 183/1/3
f 190/4/3 186/4/3 185/4/3
f 191/4/3 186/4/3 190/4/3
f 192/4/3 190/4/3 185/4/3
f 194/4/3 192/4/3 185/4/3
f 194/4/3 193/4/3 192/4/3
f 195/4/3 193/4/3 194/4/3
f 196/3/3 188/3/3 187/3/3
f 199/3/3 188/3/3 196/3/3
f 200/4/3 198/4/3 197/4/3
f 201/4/3 198/4/3 200/4/3
f 202/4/3 200/4/3 197/4/3
f 204/4/3 202/4/3 197/4/3
f 204/4/3 203/4/3 202/4/3
f 205/4/3 203/4/3 204/4/3
f 206/3/3 188/3/3 199/3/3
f 207/2/3 189/2/3 188/2/3
f 207/3/3 188/3/3 206/3/3
f 208/2/3 189/2/3 207/2/3
f 212/2/3 210/2/3 209/2/3
f 213/3/3 211/3/3 210/3/3
f 213/2/3 210/2/3 212/2/3
f 214/3/3 211/3/3 213/3/3
f 215/2/4 216/2/4 218/2/4
f 216/3/4 217/3/4 219/3/4
f 218/2/4 216/2/4 219/2/4
f 219/3/4 217/3/4 220/3/4
f 221/4/4 222/4/4 226/4/4
f 226/4/4 222/4/4 227/4/4
f 221/4/4 226/4/4 228/4/4
f 221/4/4 228/4/4 230/4/4
f 228/4/4 229/4/4 230/4/4
f 230/4/4 229/4/4 231/4/4
f 223/3/4 224/3/4 232/3/4
f 232/3/4 224/3/4 235/3/4
f 233/4/4 234/4/4 236/4/4
f 236/4/4 234/4/4 237/4/4
f 233/4/4 236/4/4 238/4/4
f 233/4/4 238/4/4 240/4/4
f 238/4/4 239/4/4 240/4/4
f 240/4/4 239/4/4 241/4/4
f 235/3/4 224/3/4 242/3/4
f 224/2/4 225/2/4 243/2/4
f 242/3/4 224/3/4 243/3/4
f 243/2/4 225/2/4 244/2/4
f 245/1/4 246/1/4 248/1/4
f 247/1/4 248/1/4 249/1/4
f 248/1/4 246/1/4 250/1/4
f 249/1/4 248/1/4 250/1/4
f 251/3/4 252/3/4 253/3/4
f 253/3/4 252/3/4 254/3/4
f 255/4/4 256/4/4 258/4/4
f 256/3/4 257/3/4 259/3/4
f 258/4/4 256/4/4 259/4/4
f 259/3/4 257/3/4 260/3/4
f 261/3/4 262/3/4 263/3/4
f 263/3/4 262/3/4 264/3/4
f 265/3/4 266/3/4 268/3/4
f 268/3/4 266/3/4 269/3/4
f 269/3/4 266/3/4 270/3/4
f 267/4/4 268/4/4 271/4/4
f 271/4/4 268/4/4 272/4/4
f 267/4/4 271/4/4 273/4/4
f 271/3/4 272/3/4 273/3/4
f 272/4/4 268/4/4 274/4/4
f 273/3/4 272/3/4 274/3/4
f 267/4/4 273/4/4 275/4/4
f 273/4/4 274/4/4 275/4/4
f 268/3/4 269/3/4 276/3/4
f 275/4/4 274/4/4 276/4/4
f 274/4/4 268/4/4 276/4/4
f 276/3/4 269/3/4 278/3/4
f 277/4/4 278/4/4 279/4/4
f 279/4/4 278/4/4 280/4/4
f 277/4/4 279/4/4 281/4/4
f 279/3/4 280/3/4 281/3/4
f 280/4/4 278/4/4 282/4/4
f 281/3/4 280/3/4 282/3/4
f 277/4/4 281/4/4 283/4/4
f 281/4/4 282/4/4 283/4/4
f 278/3/4 269/3/4 284/3/4
f 283/4/4 282/4/4 284/4/4
f 282/4/4 278/4/4 284/4/4
f 269/2/4 270/2/4 285/2/4
f 284/3/4 269/3/4 285/3/4
f 285/2/4 270/2/4 286/2/4
f 284/3/4 285/3/4 287/3/4
f 285/3/4 286/3/4 287/3/4
f 287/3/4 286/3/4 288/3/4
f 289/3/4 290/3/4 291/3/4
f 291/3/4 290/3/4 292/3/4
f 291/2/4 292/2/4 293/2/4
f 292/3/4 290/3/4 294/3/4
f 293/2/4 292/2/4 294/2/4
f 293/3/4 294/3/4 295/3/4
f 294/3/4 290/3/4 296/3/4
f 295/3/4 294/3/4 296/3/4
f 301/4/5 298/4/5 297/4/5
f 302/4/5 298/4/5 301/4/5
f 303/4/5 300/4/5 299/4/5
f 304/4/5 300/4/5 303/4/5
f 309/4/5 306/4/5 305/4/5
f 310/4/5 306/4/5 309/4/5
f 311/4/5 308/4/5 307/4/5
f 312/4/5 308/4/5 311/4/5
f 317/4/5 314/4/5 313/4/5
f 318/4/5 314/4/5 317/4/5
f 319/4/5 316/4/5 315/4/5
f 320/4/5 316/4/5 319/4/5
f 329/4/5 322/4/5 321/4/5
f 330/4/5 322/4/5 329/4/5
f 331/4/5 324/4/5 323/4/5
f 331/4/5 325/4/5 324/4/5
f 331/4/5 326/4/5 325/4/5
f 332/4/5 326/4/5 331/4/5
f 333/4/5 326/4/5 332/4/5
f 334/4/5 326/4/5 333/4/5
f 335/4/5 328/4/5 327/4/5
f 336/4/5 328/4/5 335/4/5
f 341/3/5 338/3/5 337/3/5
f 342/3/5 338/3/5 341/3/5
f 343/3/5 340/3/5 339/3/5
f 344/3/5 340/3/5 343/3/5
f 351/3/5 346/3/5 345/3/5
f 352/3/5 346/3/5 351/3/5
f 353/3/5 348/3/5 347/3/5
f 354/3/5 348/3/5 353/3/5
f 355/3/5 350/3/5 349/3/5
f 356/3/5 350/3/5 355/3/5
f 363/3/5 358/3/5 357/3/5
f 364/3/5 358/3/5 363/3/5
f 365/3/5 360/3/5 359/3/5
f 366/3/5 360/3/5 365/3/5
f 367/3/5 362/3/5 361/3/5
f 368/3/5 362/3/5 367/3/5
f 373/3/5 370/3/5 369/3/5
f 374/2/5 371/2/5 370/2/5
f 374/3/5 370/3/5 373/3/5
f 375/3/5 372/3/5 371/3/5
f 375/2/5 371/2/5 374/2/5
f 376/3/5 372/3/5 375/3/5
f 381/3/5 378/3/5 377/3/5
f 382/2/5 379/2/5 378/2/5
f 382/3/5 378/3/5 381/3/5
f 383/3/5 380/3/5 379/3/5
f 383/2/5 379/2/5 382/2/5
f 384/3/5 380/3/5 383/3/5
f 387/1/5 386/1/5 385/1/5
f 388/1/5 386/1/5 387/1/5
f 389/2/6 390/2/6 393/2/6
f 390/3/6 391/3/6 393/3/6
f 391/2/6 392/2/6 394/2/6
f 393/3/6 391/3/6 394/3/6
f 389/2/6 393/2/6 395/2/6
f 393/2/6 394/2/6 395/2/6
f 395/2/6 394/2/6 396/2/6
f 389/2/6 395/2/6 397/2/6
f 396/2/6 394/2/6 398/2/6
f 398/2/6 394/2/6 399/2/6
f 397/2/6 398/2/6 399/2/6
f 394/2/6 392/2/6 400/2/6
f 399/2/6 394/2/6 400/2/6
f 397/2/6 399/2/6 401/2/6
f 389/2/6 397/2/6 401/2/6
f 399/3/6 400/3/6 402/3/6
f 401/2/6 399/2/6 402/2/6
f 400/2/6 392/2/6 403/2/6
f 402/3/6 400/3/6 403/3/6
f 403/2/6 392/2/6 404/2/6
f 405/2/6 406/2/6 407/2/6
f 407/2/6 406/2/6 408/2/6
f 409/2/6 410/2/6 411/2/6
f 411/2/6 410/2/6 412/2/6
f 413/3/6 414/3/6 415/3/6
f 415/3/6 414/3/6 416/3/6
f 413/3/6 415/3/6 417/3/6
f 416/3/6 414/3/6 418/3/6
f 413/3/6 417/3/6 419/3/6
f 417/3/6 418/3/6 419/3/6
f 418/3/6 414/3/6 420/3/6
f 419/3/6 418/3/6 420/3/6
f 421/1/6 422/1/6 423/1/6
f 423/1/6 422/1/6 424/1/6
