# MagicaVoxel @ Ephtracy

# material
mtllib track_short.mtl
usemtl palette

# normals
vn -1 0 0
vn 1 0 0
vn 0 0 1
vn 0 0 -1
vn 0 -1 0
vn 0 1 0

# texcoords
vt 0.869141 0.5
vt 0.876953 0.5

# verts
v -13 0 4
v -13 0 3
v -13 0 -3
v -13 0 -4
v -13 1 4
v -13 1 3
v -13 1 -3
v -13 1 -4
v -12 1 5
v -12 1 4
v -12 1 3
v -12 1 -3
v -12 1 -4
v -12 1 -5
v -12 2 5
v -12 2 -5
v -10 1 5
v -10 1 4
v -10 1 3
v -10 1 -3
v -10 1 -4
v -10 1 -5
v -10 2 5
v -10 2 -5
v -8 0 4
v -8 0 3
v -8 0 -3
v -8 0 -4
v -8 1 4
v -8 1 3
v -8 1 -3
v -8 1 -4
v -12 1 5
v -12 2 5
v -10 1 5
v -10 2 5
v -13 0 4
v -13 1 4
v -12 1 4
v -10 1 4
v -8 0 4
v -8 1 4
v -13 0 -3
v -13 1 -3
v -12 1 -3
v -10 1 -3
v -8 0 -3
v -8 1 -3
v -13 0 3
v -13 1 3
v -12 1 3
v -10 1 3
v -8 0 3
v -8 1 3
v -13 0 -4
v -13 1 -4
v -12 1 -4
v -10 1 -4
v -8 0 -4
v -8 1 -4
v -12 1 -5
v -12 2 -5
v -10 1 -5
v -10 2 -5
v -13 0 4
v -8 0 4
v -13 0 3
v -8 0 3
v -13 0 -3
v -8 0 -3
v -13 0 -4
v -8 0 -4
v -12 1 5
v -10 1 5
v -12 1 4
v -10 1 4
v -12 1 3
v -10 1 3
v -12 1 -3
v -10 1 -3
v -12 1 -4
v -10 1 -4
v -12 1 -5
v -10 1 -5
v -13 1 4
v -12 1 4
v -10 1 4
v -8 1 4
v -13 1 3
v -12 1 3
v -10 1 3
v -8 1 3
v -13 1 -3
v -12 1 -3
v -10 1 -3
v -8 1 -3
v -13 1 -4
v -12 1 -4
v -10 1 -4
v -8 1 -4
v -12 2 5
v -10 2 5
v -12 2 -5
v -10 2 -5

# faces
f 5/1/1 2/1/1 1/1/1
f 6/1/1 2/1/1 5/1/1
f 7/1/1 4/1/1 3/1/1
f 8/1/1 4/1/1 7/1/1
f 15/2/1 10/2/1 9/2/1
f 15/2/1 14/2/1 13/2/1
f 15/2/1 13/2/1 12/2/1
f 15/2/1 12/2/1 11/2/1
f 15/2/1 11/2/1 10/2/1
f 16/2/1 14/2/1 15/2/1
f 17/2/2 18/2/2 23/2/2
f 21/2/2 22/2/2 23/2/2
f 20/2/2 21/2/2 23/2/2
f 19/2/2 20/2/2 23/2/2
f 18/2/2 19/2/2 23/2/2
f 23/2/2 22/2/2 24/2/2
f 25/1/2 26/1/2 29/1/2
f 29/1/2 26/1/2 30/1/2
f 27/1/2 28/1/2 31/1/2
f 31/1/2 28/1/2 32/1/2
f 35/2/3 34/2/3 33/2/3
f 36/2/3 34/2/3 35/2/3
f 39/1/3 38/1/3 37/1/3
f 40/1/3 39/1/3 37/1/3
f 41/1/3 40/1/3 37/1/3
f 42/1/3 40/1/3 41/1/3
f 45/1/3 44/1/3 43/1/3
f 46/1/3 45/1/3 43/1/3
f 47/1/3 46/1/3 43/1/3
f 48/1/3 46/1/3 47/1/3
f 49/1/4 50/1/4 51/1/4
f 49/1/4 51/1/4 52/1/4
f 49/1/4 52/1/4 53/1/4
f 53/1/4 52/1/4 54/1/4
f 55/1/4 56/1/4 57/1/4
f 55/1/4 57/1/4 58/1/4
f 55/1/4 58/1/4 59/1/4
f 59/1/4 58/1/4 60/1/4
f 61/2/4 62/2/4 63/2/4
f 63/2/4 62/2/4 64/2/4
f 67/1/5 66/1/5 65/1/5
f 68/1/5 66/1/5 67/1/5
f 71/1/5 70/1/5 69/1/5
f 72/1/5 70/1/5 71/1/5
f 75/2/5 74/2/5 73/2/5
f 76/2/5 74/2/5 75/2/5
f 79/2/5 78/2/5 77/2/5
f 80/2/5 78/2/5 79/2/5
f 83/2/5 82/2/5 81/2/5
f 84/2/5 82/2/5 83/2/5
f 85/1/6 86/1/6 89/1/6
f 89/1/6 86/1/6 90/1/6
f 87/1/6 88/1/6 91/1/6
f 91/1/6 88/1/6 92/1/6
f 93/1/6 94/1/6 97/1/6
f 97/1/6 94/1/6 98/1/6
f 95/1/6 96/1/6 99/1/6
f 99/1/6 96/1/6 100/1/6
f 101/2/6 102/2/6 103/2/6
f 103/2/6 102/2/6 104/2/6
